<?xml version="1.0" encoding="UTF-8"?>
<svg xmlns="http://www.w3.org/2000/svg" xmlns:xlink="http://www.w3.org/1999/xlink" width="146px" height="165px" viewBox="0 0 146 165" version="1.1">
<defs>
<filter id="alpha" filterUnits="objectBoundingBox" x="0%" y="0%" width="100%" height="100%">
  <feColorMatrix type="matrix" in="SourceGraphic" values="0 0 0 0 1 0 0 0 0 1 0 0 0 0 1 0 0 0 1 0"/>
</filter>
<mask id="mask0">
  <g filter="url(#alpha)">
<rect x="0" y="0" width="146" height="165" style="fill:rgb(0%,0%,0%);fill-opacity:0.101961;stroke:none;"/>
  </g>
</mask>
<clipPath id="clip1">
  <rect x="0" y="0" width="146" height="165"/>
</clipPath>
<g id="surface5" clip-path="url(#clip1)">
<path style=" stroke:none;fill-rule:nonzero;fill:rgb(97.647059%,97.647059%,98.039216%);fill-opacity:1;" d="M 66.5625 1.921875 C 70.542969 -0.375 75.449219 -0.375 79.429688 1.921875 L 139.558594 36.601562 C 143.539062 38.898438 145.992188 43.144531 145.992188 47.734375 L 145.992188 117.097656 C 145.992188 121.6875 143.539062 125.933594 139.558594 128.230469 L 79.429688 162.910156 C 75.449219 165.207031 70.542969 165.207031 66.5625 162.910156 L 6.433594 128.230469 C 2.453125 125.933594 0 121.6875 0 117.097656 L 0 47.734375 C 0 43.144531 2.453125 38.898438 6.433594 36.601562 Z M 66.5625 1.921875 "/>
</g>
</defs>
<g id="surface1">
<use xlink:href="#surface5" mask="url(#mask0)"/>
</g>
</svg>
